<?xml version="1.0" standalone="no"?>
<!DOCTYPE svg PUBLIC "-//W3C//DTD SVG 20010904//EN"
 "http://www.w3.org/TR/2001/REC-SVG-20010904/DTD/svg10.dtd">
<svg version="1.0" xmlns="http://www.w3.org/2000/svg"
 width="256.000000pt" height="256.000000pt" viewBox="0 0 256.000000 256.000000"
 preserveAspectRatio="xMidYMid meet">
<metadata>
Created by potrace 1.11, written by Peter Selinger 2001-2013
</metadata>
<g transform="translate(0.000000,256.000000) scale(0.100000,-0.100000)"
fill="#000000" stroke="none">
<path d="M305 2548 c-55 -20 -130 -74 -158 -116 -40 -57 -56 -107 -57 -175 -1
-135 61 -257 202 -401 l48 -48 -29 -37 c-89 -114 -168 -291 -201 -452 -109
-536 202 -1078 723 -1259 525 -182 1103 58 1348 559 39 81 86 220 94 280 12
81 16 101 28 113 71 74 138 189 156 268 45 195 -81 379 -268 393 -52 4 -53 4
-108 78 -175 235 -438 397 -718 442 -85 14 -300 16 -342 3 -10 -3 -34 -8 -53
-11 -52 -8 -188 -54 -243 -82 -27 -13 -50 -23 -52 -21 -2 2 6 36 16 76 17 69
18 99 2 177 -14 74 -105 173 -190 206 -39 15 -162 20 -198 7z m172 -142 c56
-29 92 -83 95 -143 5 -143 -138 -231 -262 -162 -97 55 -112 187 -32 278 42 47
137 60 199 27z m1831 -941 c32 -45 37 -117 12 -172 -21 -47 -40 -56 -41 -20
-1 42 -10 77 -39 168 -17 50 -30 93 -30 96 0 14 79 -43 98 -72z"/>
</g>
</svg>
